<mxfile host="app.diagrams.net" modified="2024-05-19T14:43:47.007Z" agent="Mozilla/5.0 (Windows NT 10.0; Win64; x64) AppleWebKit/537.36 (KHTML, like Gecko) Chrome/124.0.0.0 Safari/537.36 Edg/124.0.0.0" etag="EYBTMDloVY9ZXzVzAzyP" version="21.8.2" type="google">
  <diagram name="P치gina-1" id="NiBUwOM9NBfyEmINOoUu">
    <mxGraphModel grid="1" page="1" gridSize="10" guides="1" tooltips="1" connect="1" arrows="1" fold="1" pageScale="1" pageWidth="827" pageHeight="1169" math="0" shadow="0">
      <root>
        <mxCell id="0" />
        <mxCell id="1" parent="0" />
        <mxCell id="bCbWaLb97VCfsitgR-l3-1" value="" style="rounded=0;whiteSpace=wrap;html=1;fillColor=#b1ddf0;strokeColor=#10739e;" vertex="1" parent="1">
          <mxGeometry x="50" y="110" width="1640" height="1160" as="geometry" />
        </mxCell>
        <mxCell id="aSSlJ8zNf0AvEDA3FR8b-1" value="Usuario" style="shape=umlActor;verticalLabelPosition=bottom;verticalAlign=top;html=1;outlineConnect=0;rounded=0;labelBackgroundColor=none;fillColor=#F2CC8F;strokeColor=#E07A5F;fontColor=#393C56;" vertex="1" parent="1">
          <mxGeometry x="40" y="350" width="40" height="80" as="geometry" />
        </mxCell>
        <mxCell id="aSSlJ8zNf0AvEDA3FR8b-2" value="Iniciar sesion" style="ellipse;whiteSpace=wrap;html=1;strokeColor=#E07A5F;fontColor=#393C56;fillColor=#F2CC8F;labelBackgroundColor=none;" vertex="1" parent="1">
          <mxGeometry x="180" y="230" width="160" height="80" as="geometry" />
        </mxCell>
        <mxCell id="aSSlJ8zNf0AvEDA3FR8b-3" value="" style="endArrow=none;html=1;rounded=0;strokeColor=#E07A5F;fontColor=default;fillColor=#F2CC8F;entryX=0;entryY=0.5;entryDx=0;entryDy=0;labelBackgroundColor=none;" edge="1" parent="1" source="aSSlJ8zNf0AvEDA3FR8b-1" target="aSSlJ8zNf0AvEDA3FR8b-2">
          <mxGeometry width="50" height="50" relative="1" as="geometry">
            <mxPoint x="390" y="430" as="sourcePoint" />
            <mxPoint x="440" y="380" as="targetPoint" />
          </mxGeometry>
        </mxCell>
        <mxCell id="aSSlJ8zNf0AvEDA3FR8b-6" value="Crear cuenta" style="ellipse;whiteSpace=wrap;html=1;strokeColor=#E07A5F;fontColor=#393C56;fillColor=#F2CC8F;labelBackgroundColor=none;" vertex="1" parent="1">
          <mxGeometry x="400" y="280" width="170" height="80" as="geometry" />
        </mxCell>
        <mxCell id="aSSlJ8zNf0AvEDA3FR8b-7" value="recuperar contrase침a" style="ellipse;whiteSpace=wrap;html=1;strokeColor=#E07A5F;fontColor=#393C56;fillColor=#F2CC8F;labelBackgroundColor=none;" vertex="1" parent="1">
          <mxGeometry x="413.43" y="161.72" width="170" height="80" as="geometry" />
        </mxCell>
        <mxCell id="aSSlJ8zNf0AvEDA3FR8b-43" value="" style="endArrow=block;dashed=1;endFill=0;endSize=12;html=1;rounded=0;strokeColor=#E07A5F;fontColor=default;fillColor=#F2CC8F;exitX=0;exitY=0.5;exitDx=0;exitDy=0;entryX=1;entryY=0;entryDx=0;entryDy=0;labelBackgroundColor=none;" edge="1" parent="1" source="aSSlJ8zNf0AvEDA3FR8b-7" target="aSSlJ8zNf0AvEDA3FR8b-2">
          <mxGeometry width="160" relative="1" as="geometry">
            <mxPoint x="413.43" y="131.72" as="sourcePoint" />
            <mxPoint x="359.9985424949238" y="150.0042712474619" as="targetPoint" />
          </mxGeometry>
        </mxCell>
        <mxCell id="Cc7QvXCfJz0SxkpB7B-L-2" value="Extends" style="text;html=1;strokeColor=none;fillColor=none;align=center;verticalAlign=middle;whiteSpace=wrap;rounded=0;rotation=-30;labelBackgroundColor=none;fontColor=#393C56;" vertex="1" parent="1">
          <mxGeometry x="330" y="186.72" width="60" height="30" as="geometry" />
        </mxCell>
        <mxCell id="Cc7QvXCfJz0SxkpB7B-L-5" value="" style="endArrow=block;dashed=1;endFill=0;endSize=12;html=1;rounded=0;strokeColor=#E07A5F;fontColor=default;fillColor=#F2CC8F;exitX=0;exitY=0.5;exitDx=0;exitDy=0;entryX=1;entryY=0.5;entryDx=0;entryDy=0;labelBackgroundColor=none;" edge="1" parent="1" source="Cc7QvXCfJz0SxkpB7B-L-12" target="aSSlJ8zNf0AvEDA3FR8b-6">
          <mxGeometry width="160" relative="1" as="geometry">
            <mxPoint x="327" y="252" as="sourcePoint" />
            <mxPoint x="380" y="540" as="targetPoint" />
          </mxGeometry>
        </mxCell>
        <mxCell id="Cc7QvXCfJz0SxkpB7B-L-6" value="" style="endArrow=block;dashed=1;endFill=0;endSize=12;html=1;rounded=0;strokeColor=#E07A5F;fontColor=default;fillColor=#F2CC8F;exitX=0;exitY=0.5;exitDx=0;exitDy=0;entryX=1;entryY=1;entryDx=0;entryDy=0;labelBackgroundColor=none;" edge="1" parent="1" source="aSSlJ8zNf0AvEDA3FR8b-6" target="aSSlJ8zNf0AvEDA3FR8b-2">
          <mxGeometry width="160" relative="1" as="geometry">
            <mxPoint x="355" y="520" as="sourcePoint" />
            <mxPoint x="300" y="350" as="targetPoint" />
          </mxGeometry>
        </mxCell>
        <mxCell id="Cc7QvXCfJz0SxkpB7B-L-11" value="&lt;font style=&quot;font-size: 26px;&quot;&gt;&lt;b&gt;Routine Express&lt;/b&gt;&lt;/font&gt;" style="text;html=1;strokeColor=none;fillColor=none;align=center;verticalAlign=middle;whiteSpace=wrap;rounded=0;labelBackgroundColor=none;fontColor=#393C56;" vertex="1" parent="1">
          <mxGeometry x="140" y="100" width="230" height="30" as="geometry" />
        </mxCell>
        <mxCell id="Cc7QvXCfJz0SxkpB7B-L-12" value="Ingrese su nombre:" style="ellipse;whiteSpace=wrap;html=1;strokeColor=#E07A5F;fontColor=#393C56;fillColor=#F2CC8F;labelBackgroundColor=none;" vertex="1" parent="1">
          <mxGeometry x="630" y="280" width="120" height="80" as="geometry" />
        </mxCell>
        <mxCell id="Cc7QvXCfJz0SxkpB7B-L-13" value="Ingresa su apellido:" style="ellipse;whiteSpace=wrap;html=1;strokeColor=#E07A5F;fontColor=#393C56;fillColor=#F2CC8F;labelBackgroundColor=none;" vertex="1" parent="1">
          <mxGeometry x="810" y="280" width="120" height="80" as="geometry" />
        </mxCell>
        <mxCell id="Cc7QvXCfJz0SxkpB7B-L-14" value="" style="endArrow=block;dashed=1;endFill=0;endSize=12;html=1;rounded=0;strokeColor=#E07A5F;fontColor=default;fillColor=#F2CC8F;exitX=0;exitY=0.5;exitDx=0;exitDy=0;entryX=1;entryY=0.5;entryDx=0;entryDy=0;labelBackgroundColor=none;" edge="1" parent="1" source="Cc7QvXCfJz0SxkpB7B-L-13" target="Cc7QvXCfJz0SxkpB7B-L-12">
          <mxGeometry width="160" relative="1" as="geometry">
            <mxPoint x="470" y="130" as="sourcePoint" />
            <mxPoint x="760" y="380" as="targetPoint" />
          </mxGeometry>
        </mxCell>
        <mxCell id="Cc7QvXCfJz0SxkpB7B-L-15" value="Ingresa la contrase침a:" style="ellipse;whiteSpace=wrap;html=1;strokeColor=#E07A5F;fontColor=#393C56;fillColor=#F2CC8F;labelBackgroundColor=none;" vertex="1" parent="1">
          <mxGeometry x="1200" y="280" width="120" height="80" as="geometry" />
        </mxCell>
        <mxCell id="Cc7QvXCfJz0SxkpB7B-L-16" value="Ingresa su nombre de usuario:" style="ellipse;whiteSpace=wrap;html=1;strokeColor=#E07A5F;fontColor=#393C56;fillColor=#F2CC8F;labelBackgroundColor=none;" vertex="1" parent="1">
          <mxGeometry x="990" y="280" width="130" height="80" as="geometry" />
        </mxCell>
        <mxCell id="Cc7QvXCfJz0SxkpB7B-L-17" value="Confirmar contrase침a:" style="ellipse;whiteSpace=wrap;html=1;strokeColor=#E07A5F;fontColor=#393C56;fillColor=#F2CC8F;labelBackgroundColor=none;" vertex="1" parent="1">
          <mxGeometry x="1400" y="280" width="120" height="80" as="geometry" />
        </mxCell>
        <mxCell id="Cc7QvXCfJz0SxkpB7B-L-18" value="Ingresa su Gmail:&amp;nbsp;" style="ellipse;whiteSpace=wrap;html=1;strokeColor=#E07A5F;fontColor=#393C56;fillColor=#F2CC8F;labelBackgroundColor=none;" vertex="1" parent="1">
          <mxGeometry x="1590" y="280" width="120" height="80" as="geometry" />
        </mxCell>
        <mxCell id="Cc7QvXCfJz0SxkpB7B-L-19" value="" style="endArrow=block;dashed=1;endFill=0;endSize=12;html=1;rounded=0;strokeColor=#E07A5F;fontColor=default;fillColor=#F2CC8F;exitX=1;exitY=1;exitDx=0;exitDy=0;entryX=1;entryY=0.5;entryDx=0;entryDy=0;labelBackgroundColor=none;" edge="1" parent="1" source="Cc7QvXCfJz0SxkpB7B-L-28" target="Cc7QvXCfJz0SxkpB7B-L-13">
          <mxGeometry width="160" relative="1" as="geometry">
            <mxPoint x="760" y="330" as="sourcePoint" />
            <mxPoint x="970" y="370" as="targetPoint" />
          </mxGeometry>
        </mxCell>
        <mxCell id="Cc7QvXCfJz0SxkpB7B-L-20" value="" style="endArrow=block;dashed=1;endFill=0;endSize=12;html=1;rounded=0;strokeColor=#E07A5F;fontColor=default;fillColor=#F2CC8F;exitX=0;exitY=0.5;exitDx=0;exitDy=0;entryX=1;entryY=0.5;entryDx=0;entryDy=0;labelBackgroundColor=none;" edge="1" parent="1" source="Cc7QvXCfJz0SxkpB7B-L-15" target="Cc7QvXCfJz0SxkpB7B-L-16">
          <mxGeometry width="160" relative="1" as="geometry">
            <mxPoint x="1150" y="320" as="sourcePoint" />
            <mxPoint x="1150" y="370" as="targetPoint" />
          </mxGeometry>
        </mxCell>
        <mxCell id="Cc7QvXCfJz0SxkpB7B-L-21" value="" style="endArrow=block;dashed=1;endFill=0;endSize=12;html=1;rounded=0;strokeColor=#E07A5F;fontColor=default;fillColor=#F2CC8F;exitX=0;exitY=0.5;exitDx=0;exitDy=0;entryX=1;entryY=0.5;entryDx=0;entryDy=0;labelBackgroundColor=none;" edge="1" parent="1" source="Cc7QvXCfJz0SxkpB7B-L-17" target="Cc7QvXCfJz0SxkpB7B-L-15">
          <mxGeometry width="160" relative="1" as="geometry">
            <mxPoint x="1160" y="330" as="sourcePoint" />
            <mxPoint x="1360" y="370" as="targetPoint" />
          </mxGeometry>
        </mxCell>
        <mxCell id="Cc7QvXCfJz0SxkpB7B-L-24" value="" style="endArrow=block;dashed=1;endFill=0;endSize=12;html=1;rounded=0;strokeColor=#E07A5F;fontColor=default;fillColor=#F2CC8F;exitX=0;exitY=0.5;exitDx=0;exitDy=0;entryX=1;entryY=0.5;entryDx=0;entryDy=0;labelBackgroundColor=none;" edge="1" parent="1" source="Cc7QvXCfJz0SxkpB7B-L-18" target="Cc7QvXCfJz0SxkpB7B-L-17">
          <mxGeometry width="160" relative="1" as="geometry">
            <mxPoint x="1200" y="340" as="sourcePoint" />
            <mxPoint x="1580" y="360" as="targetPoint" />
          </mxGeometry>
        </mxCell>
        <mxCell id="Cc7QvXCfJz0SxkpB7B-L-26" value="Incluir" style="text;html=1;strokeColor=none;fillColor=none;align=center;verticalAlign=middle;whiteSpace=wrap;rounded=0;rotation=0;labelBackgroundColor=none;fontColor=#393C56;" vertex="1" parent="1">
          <mxGeometry x="570" y="280" width="60" height="30" as="geometry" />
        </mxCell>
        <mxCell id="Cc7QvXCfJz0SxkpB7B-L-27" value="Incluir" style="text;html=1;strokeColor=none;fillColor=none;align=center;verticalAlign=middle;whiteSpace=wrap;rounded=0;rotation=0;labelBackgroundColor=none;fontColor=#393C56;" vertex="1" parent="1">
          <mxGeometry x="750" y="290" width="60" height="30" as="geometry" />
        </mxCell>
        <mxCell id="Cc7QvXCfJz0SxkpB7B-L-28" value="Incluir" style="text;html=1;strokeColor=none;fillColor=none;align=center;verticalAlign=middle;whiteSpace=wrap;rounded=0;rotation=0;labelBackgroundColor=none;fontColor=#393C56;" vertex="1" parent="1">
          <mxGeometry x="930" y="290" width="60" height="30" as="geometry" />
        </mxCell>
        <mxCell id="Cc7QvXCfJz0SxkpB7B-L-29" value="Incluir" style="text;html=1;strokeColor=none;fillColor=none;align=center;verticalAlign=middle;whiteSpace=wrap;rounded=0;rotation=0;labelBackgroundColor=none;fontColor=#393C56;" vertex="1" parent="1">
          <mxGeometry x="1520" y="290" width="60" height="30" as="geometry" />
        </mxCell>
        <mxCell id="Cc7QvXCfJz0SxkpB7B-L-30" value="Incluir" style="text;html=1;strokeColor=none;fillColor=none;align=center;verticalAlign=middle;whiteSpace=wrap;rounded=0;rotation=0;labelBackgroundColor=none;fontColor=#393C56;" vertex="1" parent="1">
          <mxGeometry x="1320" y="280" width="60" height="30" as="geometry" />
        </mxCell>
        <mxCell id="Cc7QvXCfJz0SxkpB7B-L-31" value="Incluir" style="text;html=1;strokeColor=none;fillColor=none;align=center;verticalAlign=middle;whiteSpace=wrap;rounded=0;rotation=0;labelBackgroundColor=none;fontColor=#393C56;" vertex="1" parent="1">
          <mxGeometry x="1120" y="280" width="60" height="30" as="geometry" />
        </mxCell>
        <mxCell id="Cc7QvXCfJz0SxkpB7B-L-34" value="Ingrese su correo:" style="ellipse;whiteSpace=wrap;html=1;strokeColor=#E07A5F;fontColor=#393C56;fillColor=#F2CC8F;labelBackgroundColor=none;" vertex="1" parent="1">
          <mxGeometry x="663.43" y="161.72" width="120" height="80" as="geometry" />
        </mxCell>
        <mxCell id="Cc7QvXCfJz0SxkpB7B-L-35" value="Confirmar su correo:" style="ellipse;whiteSpace=wrap;html=1;strokeColor=#E07A5F;fontColor=#393C56;fillColor=#F2CC8F;labelBackgroundColor=none;" vertex="1" parent="1">
          <mxGeometry x="838.43" y="161.72" width="120" height="80" as="geometry" />
        </mxCell>
        <mxCell id="Cc7QvXCfJz0SxkpB7B-L-36" value="" style="endArrow=block;dashed=1;endFill=0;endSize=12;html=1;rounded=0;strokeColor=#E07A5F;fontColor=default;fillColor=#F2CC8F;exitX=0;exitY=0.5;exitDx=0;exitDy=0;entryX=1;entryY=0.5;entryDx=0;entryDy=0;labelBackgroundColor=none;" edge="1" parent="1" source="Cc7QvXCfJz0SxkpB7B-L-34" target="aSSlJ8zNf0AvEDA3FR8b-7">
          <mxGeometry width="160" relative="1" as="geometry">
            <mxPoint x="653.43" y="200.72" as="sourcePoint" />
            <mxPoint x="593.43" y="200.72" as="targetPoint" />
          </mxGeometry>
        </mxCell>
        <mxCell id="Cc7QvXCfJz0SxkpB7B-L-39" value="" style="endArrow=block;dashed=1;endFill=0;endSize=12;html=1;rounded=0;strokeColor=#E07A5F;fontColor=default;fillColor=#F2CC8F;exitX=0;exitY=0.5;exitDx=0;exitDy=0;entryX=1;entryY=0.5;entryDx=0;entryDy=0;labelBackgroundColor=none;" edge="1" parent="1" source="Cc7QvXCfJz0SxkpB7B-L-35" target="Cc7QvXCfJz0SxkpB7B-L-34">
          <mxGeometry width="160" relative="1" as="geometry">
            <mxPoint x="663.43" y="160.72" as="sourcePoint" />
            <mxPoint x="603.43" y="160.72" as="targetPoint" />
          </mxGeometry>
        </mxCell>
        <mxCell id="Cc7QvXCfJz0SxkpB7B-L-40" value="Incluir" style="text;html=1;strokeColor=none;fillColor=none;align=center;verticalAlign=middle;whiteSpace=wrap;rounded=0;rotation=0;labelBackgroundColor=none;fontColor=#393C56;" vertex="1" parent="1">
          <mxGeometry x="603.43" y="171.72" width="60" height="30" as="geometry" />
        </mxCell>
        <mxCell id="Cc7QvXCfJz0SxkpB7B-L-41" value="Incluir" style="text;html=1;strokeColor=none;fillColor=none;align=center;verticalAlign=middle;whiteSpace=wrap;rounded=0;rotation=0;labelBackgroundColor=none;fontColor=#393C56;" vertex="1" parent="1">
          <mxGeometry x="783.43" y="171.72" width="60" height="30" as="geometry" />
        </mxCell>
        <mxCell id="BwOZN-iWx5cRg0U3uS1_-3" value="Extends" style="text;html=1;strokeColor=none;fillColor=none;align=center;verticalAlign=middle;whiteSpace=wrap;rounded=0;rotation=15;labelBackgroundColor=none;fontColor=#393C56;" vertex="1" parent="1">
          <mxGeometry x="340" y="290" width="60" height="20" as="geometry" />
        </mxCell>
        <mxCell id="BwOZN-iWx5cRg0U3uS1_-4" value="Men칰&amp;nbsp;" style="ellipse;whiteSpace=wrap;html=1;fillColor=#F2CC8F;strokeColor=#E07A5F;fontColor=#393C56;labelBackgroundColor=none;" vertex="1" parent="1">
          <mxGeometry x="220" y="770" width="120" height="80" as="geometry" />
        </mxCell>
        <mxCell id="BwOZN-iWx5cRg0U3uS1_-5" value="Crear Rutina&amp;nbsp;" style="ellipse;whiteSpace=wrap;html=1;labelBackgroundColor=none;fillColor=#F2CC8F;strokeColor=#E07A5F;fontColor=#393C56;" vertex="1" parent="1">
          <mxGeometry x="430" y="540" width="120" height="80" as="geometry" />
        </mxCell>
        <mxCell id="BwOZN-iWx5cRg0U3uS1_-6" value="Consultar Rutina&amp;nbsp;" style="ellipse;whiteSpace=wrap;html=1;labelBackgroundColor=none;fillColor=#F2CC8F;strokeColor=#E07A5F;fontColor=#393C56;" vertex="1" parent="1">
          <mxGeometry x="440" y="660" width="120" height="80" as="geometry" />
        </mxCell>
        <mxCell id="BwOZN-iWx5cRg0U3uS1_-8" value="Configuraci칩n&amp;nbsp;" style="ellipse;whiteSpace=wrap;html=1;labelBackgroundColor=none;fillColor=#F2CC8F;strokeColor=#E07A5F;fontColor=#393C56;" vertex="1" parent="1">
          <mxGeometry x="420" y="801" width="120" height="80" as="geometry" />
        </mxCell>
        <mxCell id="BwOZN-iWx5cRg0U3uS1_-9" value="Cambiar Cuenta&amp;nbsp;" style="ellipse;whiteSpace=wrap;html=1;labelBackgroundColor=none;fillColor=#F2CC8F;strokeColor=#E07A5F;fontColor=#393C56;" vertex="1" parent="1">
          <mxGeometry x="220" y="975" width="120" height="80" as="geometry" />
        </mxCell>
        <mxCell id="BwOZN-iWx5cRg0U3uS1_-10" value="" style="endArrow=block;dashed=1;endFill=0;endSize=12;html=1;rounded=0;exitX=0.5;exitY=0;exitDx=0;exitDy=0;entryX=-0.017;entryY=0.588;entryDx=0;entryDy=0;entryPerimeter=0;labelBackgroundColor=none;strokeColor=#E07A5F;fontColor=default;" edge="1" parent="1" source="BwOZN-iWx5cRg0U3uS1_-4" target="BwOZN-iWx5cRg0U3uS1_-5">
          <mxGeometry width="160" relative="1" as="geometry">
            <mxPoint x="390" y="850" as="sourcePoint" />
            <mxPoint x="550.0000000000001" y="850" as="targetPoint" />
          </mxGeometry>
        </mxCell>
        <mxCell id="BwOZN-iWx5cRg0U3uS1_-11" value="" style="endArrow=block;dashed=1;endFill=0;endSize=12;html=1;rounded=0;entryX=0.742;entryY=0.05;entryDx=0;entryDy=0;entryPerimeter=0;exitX=0;exitY=0.5;exitDx=0;exitDy=0;labelBackgroundColor=none;strokeColor=#E07A5F;fontColor=default;" edge="1" parent="1" source="BwOZN-iWx5cRg0U3uS1_-6" target="BwOZN-iWx5cRg0U3uS1_-4">
          <mxGeometry width="160" relative="1" as="geometry">
            <mxPoint x="300" y="770" as="sourcePoint" />
            <mxPoint x="428" y="567" as="targetPoint" />
          </mxGeometry>
        </mxCell>
        <mxCell id="BwOZN-iWx5cRg0U3uS1_-13" value="" style="endArrow=block;dashed=1;endFill=0;endSize=12;html=1;rounded=0;entryX=1;entryY=1;entryDx=0;entryDy=0;exitX=0;exitY=0.5;exitDx=0;exitDy=0;labelBackgroundColor=none;strokeColor=#E07A5F;fontColor=default;" edge="1" parent="1" source="BwOZN-iWx5cRg0U3uS1_-18" target="BwOZN-iWx5cRg0U3uS1_-4">
          <mxGeometry width="160" relative="1" as="geometry">
            <mxPoint x="387" y="909" as="sourcePoint" />
            <mxPoint x="430" y="793" as="targetPoint" />
          </mxGeometry>
        </mxCell>
        <mxCell id="BwOZN-iWx5cRg0U3uS1_-14" value="" style="endArrow=block;dashed=1;endFill=0;endSize=12;html=1;rounded=0;exitX=0.5;exitY=0;exitDx=0;exitDy=0;labelBackgroundColor=none;strokeColor=#E07A5F;fontColor=default;" edge="1" parent="1" source="BwOZN-iWx5cRg0U3uS1_-9" target="BwOZN-iWx5cRg0U3uS1_-4">
          <mxGeometry width="160" relative="1" as="geometry">
            <mxPoint x="437" y="899" as="sourcePoint" />
            <mxPoint x="350" y="820" as="targetPoint" />
          </mxGeometry>
        </mxCell>
        <mxCell id="BwOZN-iWx5cRg0U3uS1_-15" value="Incluir&amp;nbsp;" style="text;html=1;strokeColor=none;fillColor=none;align=center;verticalAlign=middle;whiteSpace=wrap;rounded=0;rotation=-60;labelBackgroundColor=none;fontColor=#393C56;" vertex="1" parent="1">
          <mxGeometry x="290" y="650" width="60" height="30" as="geometry" />
        </mxCell>
        <mxCell id="BwOZN-iWx5cRg0U3uS1_-16" value="Extends" style="text;html=1;strokeColor=none;fillColor=none;align=center;verticalAlign=middle;whiteSpace=wrap;rounded=0;rotation=-35;labelBackgroundColor=none;fontColor=#393C56;" vertex="1" parent="1">
          <mxGeometry x="340" y="710" width="60" height="30" as="geometry" />
        </mxCell>
        <mxCell id="BwOZN-iWx5cRg0U3uS1_-19" value="Extends" style="text;html=1;strokeColor=none;fillColor=none;align=center;verticalAlign=middle;whiteSpace=wrap;rounded=0;rotation=-91;labelBackgroundColor=none;fontColor=#393C56;" vertex="1" parent="1">
          <mxGeometry x="260" y="910" width="60" height="30" as="geometry" />
        </mxCell>
        <mxCell id="BwOZN-iWx5cRg0U3uS1_-20" value="Rutina manual" style="ellipse;whiteSpace=wrap;html=1;labelBackgroundColor=none;fillColor=#F2CC8F;strokeColor=#E07A5F;fontColor=#393C56;" vertex="1" parent="1">
          <mxGeometry x="580.0000000000001" y="410" width="120" height="80" as="geometry" />
        </mxCell>
        <mxCell id="BwOZN-iWx5cRg0U3uS1_-21" value="Rutina por IA" style="ellipse;whiteSpace=wrap;html=1;labelBackgroundColor=none;fillColor=#F2CC8F;strokeColor=#E07A5F;fontColor=#393C56;" vertex="1" parent="1">
          <mxGeometry x="630.0000000000001" y="540" width="120" height="80" as="geometry" />
        </mxCell>
        <mxCell id="BwOZN-iWx5cRg0U3uS1_-22" value="" style="endArrow=block;dashed=1;endFill=0;endSize=12;html=1;rounded=0;exitX=0;exitY=0.5;exitDx=0;exitDy=0;labelBackgroundColor=none;strokeColor=#E07A5F;fontColor=default;" edge="1" parent="1" source="BwOZN-iWx5cRg0U3uS1_-20" target="BwOZN-iWx5cRg0U3uS1_-5">
          <mxGeometry width="160" relative="1" as="geometry">
            <mxPoint x="440" y="830" as="sourcePoint" />
            <mxPoint x="353" y="832" as="targetPoint" />
          </mxGeometry>
        </mxCell>
        <mxCell id="BwOZN-iWx5cRg0U3uS1_-23" value="" style="endArrow=block;dashed=1;endFill=0;endSize=12;html=1;rounded=0;entryX=1;entryY=0.5;entryDx=0;entryDy=0;labelBackgroundColor=none;strokeColor=#E07A5F;fontColor=default;" edge="1" parent="1" target="BwOZN-iWx5cRg0U3uS1_-5">
          <mxGeometry width="160" relative="1" as="geometry">
            <mxPoint x="630.0000000000001" y="580" as="sourcePoint" />
            <mxPoint x="620.0000000000001" y="630" as="targetPoint" />
          </mxGeometry>
        </mxCell>
        <mxCell id="BwOZN-iWx5cRg0U3uS1_-24" value="Extends" style="text;html=1;strokeColor=none;fillColor=none;align=center;verticalAlign=middle;whiteSpace=wrap;rounded=0;rotation=-55;labelBackgroundColor=none;fontColor=#393C56;" vertex="1" parent="1">
          <mxGeometry x="510" y="470" width="60" height="30" as="geometry" />
        </mxCell>
        <mxCell id="BwOZN-iWx5cRg0U3uS1_-25" value="Extends" style="text;html=1;strokeColor=none;fillColor=none;align=center;verticalAlign=middle;whiteSpace=wrap;rounded=0;rotation=0;labelBackgroundColor=none;fontColor=#393C56;" vertex="1" parent="1">
          <mxGeometry x="560.0000000000001" y="550" width="60" height="30" as="geometry" />
        </mxCell>
        <mxCell id="BwOZN-iWx5cRg0U3uS1_-29" value="Notificaci칩n" style="ellipse;whiteSpace=wrap;html=1;labelBackgroundColor=none;fillColor=#F2CC8F;strokeColor=#E07A5F;fontColor=#393C56;" vertex="1" parent="1">
          <mxGeometry x="610.0000000000001" y="831" width="120" height="80" as="geometry" />
        </mxCell>
        <mxCell id="BwOZN-iWx5cRg0U3uS1_-30" value="" style="endArrow=block;dashed=1;endFill=0;endSize=12;html=1;rounded=0;entryX=1;entryY=0.5;entryDx=0;entryDy=0;labelBackgroundColor=none;strokeColor=#E07A5F;fontColor=default;" edge="1" parent="1" source="BwOZN-iWx5cRg0U3uS1_-29" target="BwOZN-iWx5cRg0U3uS1_-8">
          <mxGeometry width="160" relative="1" as="geometry">
            <mxPoint x="650.0000000000001" y="820" as="sourcePoint" />
            <mxPoint x="580" y="821" as="targetPoint" />
          </mxGeometry>
        </mxCell>
        <mxCell id="BwOZN-iWx5cRg0U3uS1_-31" value="Extends" style="text;html=1;strokeColor=none;fillColor=none;align=center;verticalAlign=middle;whiteSpace=wrap;rounded=0;rotation=15;labelBackgroundColor=none;fontColor=#393C56;" vertex="1" parent="1">
          <mxGeometry x="563.1700000000001" y="835.08" width="46.83" height="11.83" as="geometry" />
        </mxCell>
        <mxCell id="BwOZN-iWx5cRg0U3uS1_-32" value="Personalizar" style="ellipse;whiteSpace=wrap;html=1;labelBackgroundColor=none;fillColor=#F2CC8F;strokeColor=#E07A5F;fontColor=#393C56;" vertex="1" parent="1">
          <mxGeometry x="420" y="1006" width="120" height="80" as="geometry" />
        </mxCell>
        <mxCell id="BwOZN-iWx5cRg0U3uS1_-33" value="Extends" style="text;html=1;strokeColor=none;fillColor=none;align=center;verticalAlign=middle;whiteSpace=wrap;rounded=0;rotation=-90;labelBackgroundColor=none;fontColor=#393C56;" vertex="1" parent="1">
          <mxGeometry x="460" y="936" width="60" height="30" as="geometry" />
        </mxCell>
        <mxCell id="BwOZN-iWx5cRg0U3uS1_-34" value="" style="endArrow=block;dashed=1;endFill=0;endSize=12;html=1;rounded=0;entryX=0.5;entryY=1;entryDx=0;entryDy=0;exitX=0.5;exitY=0;exitDx=0;exitDy=0;labelBackgroundColor=none;strokeColor=#E07A5F;fontColor=default;" edge="1" parent="1" source="BwOZN-iWx5cRg0U3uS1_-32" target="BwOZN-iWx5cRg0U3uS1_-8">
          <mxGeometry width="160" relative="1" as="geometry">
            <mxPoint x="675.0000000000001" y="879.5" as="sourcePoint" />
            <mxPoint x="585" y="879.5" as="targetPoint" />
          </mxGeometry>
        </mxCell>
        <mxCell id="BwOZN-iWx5cRg0U3uS1_-35" value="vibraci칩n" style="ellipse;whiteSpace=wrap;html=1;labelBackgroundColor=none;fillColor=#F2CC8F;strokeColor=#E07A5F;fontColor=#393C56;" vertex="1" parent="1">
          <mxGeometry x="797.0000000000001" y="791" width="120" height="80" as="geometry" />
        </mxCell>
        <mxCell id="BwOZN-iWx5cRg0U3uS1_-36" value="" style="endArrow=block;dashed=1;endFill=0;endSize=12;html=1;rounded=0;labelBackgroundColor=none;strokeColor=#E07A5F;fontColor=default;" edge="1" parent="1" source="BwOZN-iWx5cRg0U3uS1_-35" target="BwOZN-iWx5cRg0U3uS1_-29">
          <mxGeometry width="160" relative="1" as="geometry">
            <mxPoint x="810.0000000000001" y="820" as="sourcePoint" />
            <mxPoint x="740.0000000000001" y="821" as="targetPoint" />
          </mxGeometry>
        </mxCell>
        <mxCell id="BwOZN-iWx5cRg0U3uS1_-37" value="Extedens" style="text;html=1;strokeColor=none;fillColor=none;align=center;verticalAlign=middle;whiteSpace=wrap;rounded=0;rotation=-10;labelBackgroundColor=none;fontColor=#393C56;" vertex="1" parent="1">
          <mxGeometry x="743.41" y="831" width="50" height="15" as="geometry" />
        </mxCell>
        <mxCell id="BwOZN-iWx5cRg0U3uS1_-38" value="Sonido de alarma" style="ellipse;whiteSpace=wrap;html=1;labelBackgroundColor=none;fillColor=#F2CC8F;strokeColor=#E07A5F;fontColor=#393C56;" vertex="1" parent="1">
          <mxGeometry x="790.0000000000001" y="936" width="120" height="80" as="geometry" />
        </mxCell>
        <mxCell id="BwOZN-iWx5cRg0U3uS1_-39" value="" style="endArrow=block;dashed=1;endFill=0;endSize=12;html=1;rounded=0;entryX=1;entryY=1;entryDx=0;entryDy=0;labelBackgroundColor=none;strokeColor=#E07A5F;fontColor=default;" edge="1" parent="1" source="BwOZN-iWx5cRg0U3uS1_-38" target="BwOZN-iWx5cRg0U3uS1_-29">
          <mxGeometry width="160" relative="1" as="geometry">
            <mxPoint x="810.0000000000001" y="910" as="sourcePoint" />
            <mxPoint x="719.0000000000001" y="941" as="targetPoint" />
          </mxGeometry>
        </mxCell>
        <mxCell id="BwOZN-iWx5cRg0U3uS1_-40" value="Extends" style="text;html=1;strokeColor=none;fillColor=none;align=center;verticalAlign=middle;whiteSpace=wrap;rounded=0;rotation=25;labelBackgroundColor=none;fontColor=#393C56;" vertex="1" parent="1">
          <mxGeometry x="743.41" y="901" width="60" height="30" as="geometry" />
        </mxCell>
        <mxCell id="BwOZN-iWx5cRg0U3uS1_-41" value="Cambiar modo" style="ellipse;whiteSpace=wrap;html=1;labelBackgroundColor=none;fillColor=#F2CC8F;strokeColor=#E07A5F;fontColor=#393C56;" vertex="1" parent="1">
          <mxGeometry x="641.41" y="1016" width="120" height="80" as="geometry" />
        </mxCell>
        <mxCell id="BwOZN-iWx5cRg0U3uS1_-42" value="" style="endArrow=block;dashed=1;endFill=0;endSize=12;html=1;rounded=0;labelBackgroundColor=none;strokeColor=#E07A5F;fontColor=default;" edge="1" parent="1" source="BwOZN-iWx5cRg0U3uS1_-41" target="BwOZN-iWx5cRg0U3uS1_-32">
          <mxGeometry width="160" relative="1" as="geometry">
            <mxPoint x="651.41" y="995" as="sourcePoint" />
            <mxPoint x="571.4100000000001" y="1043" as="targetPoint" />
          </mxGeometry>
        </mxCell>
        <mxCell id="BwOZN-iWx5cRg0U3uS1_-43" value="Extends" style="text;html=1;strokeColor=none;fillColor=none;align=center;verticalAlign=middle;whiteSpace=wrap;rounded=0;rotation=0;labelBackgroundColor=none;fontColor=#393C56;" vertex="1" parent="1">
          <mxGeometry x="565.4100000000001" y="1026" width="58" height="15" as="geometry" />
        </mxCell>
        <mxCell id="BwOZN-iWx5cRg0U3uS1_-44" value="Cambiar color" style="ellipse;whiteSpace=wrap;html=1;labelBackgroundColor=none;fillColor=#F2CC8F;strokeColor=#E07A5F;fontColor=#393C56;" vertex="1" parent="1">
          <mxGeometry x="623.41" y="1116" width="120" height="80" as="geometry" />
        </mxCell>
        <mxCell id="BwOZN-iWx5cRg0U3uS1_-45" value="" style="endArrow=block;dashed=1;endFill=0;endSize=12;html=1;rounded=0;entryX=0.945;entryY=0.75;entryDx=0;entryDy=0;entryPerimeter=0;labelBackgroundColor=none;strokeColor=#E07A5F;fontColor=default;" edge="1" parent="1" source="BwOZN-iWx5cRg0U3uS1_-44" target="BwOZN-iWx5cRg0U3uS1_-32">
          <mxGeometry width="160" relative="1" as="geometry">
            <mxPoint x="651.41" y="1085" as="sourcePoint" />
            <mxPoint x="553.4100000000001" y="1074" as="targetPoint" />
          </mxGeometry>
        </mxCell>
        <mxCell id="BwOZN-iWx5cRg0U3uS1_-46" value="Extends" style="text;html=1;strokeColor=none;fillColor=none;align=center;verticalAlign=middle;whiteSpace=wrap;rounded=0;rotation=25;labelBackgroundColor=none;fontColor=#393C56;" vertex="1" parent="1">
          <mxGeometry x="573.4100000000001" y="1076" width="60" height="30" as="geometry" />
        </mxCell>
        <mxCell id="BwOZN-iWx5cRg0U3uS1_-47" value="" style="endArrow=block;dashed=1;endFill=0;endSize=12;html=1;rounded=0;strokeColor=#E07A5F;fontColor=default;fillColor=#F2CC8F;exitX=0.366;exitY=0.036;exitDx=0;exitDy=0;labelBackgroundColor=none;exitPerimeter=0;" edge="1" parent="1" source="BwOZN-iWx5cRg0U3uS1_-4">
          <mxGeometry width="160" relative="1" as="geometry">
            <mxPoint x="423" y="212" as="sourcePoint" />
            <mxPoint x="260" y="400" as="targetPoint" />
          </mxGeometry>
        </mxCell>
        <mxCell id="BwOZN-iWx5cRg0U3uS1_-48" value="" style="endArrow=block;dashed=1;endFill=0;endSize=12;html=1;rounded=0;strokeColor=#E07A5F;fontColor=default;fillColor=#F2CC8F;exitX=0;exitY=0.5;exitDx=0;exitDy=0;entryX=1;entryY=0;entryDx=0;entryDy=0;labelBackgroundColor=none;" edge="1" parent="1">
          <mxGeometry width="160" relative="1" as="geometry">
            <mxPoint x="433" y="222" as="sourcePoint" />
            <mxPoint x="337" y="262" as="targetPoint" />
          </mxGeometry>
        </mxCell>
        <mxCell id="BwOZN-iWx5cRg0U3uS1_-49" value="Incluir" style="text;html=1;strokeColor=none;fillColor=none;align=center;verticalAlign=middle;whiteSpace=wrap;rounded=0;rotation=-90;labelBackgroundColor=none;fontColor=#393C56;" vertex="1" parent="1">
          <mxGeometry x="220" y="555" width="60" height="30" as="geometry" />
        </mxCell>
        <mxCell id="BwOZN-iWx5cRg0U3uS1_-51" value="Modificar Rutina" style="ellipse;whiteSpace=wrap;html=1;labelBackgroundColor=none;fillColor=#F2CC8F;strokeColor=#E07A5F;fontColor=#393C56;" vertex="1" parent="1">
          <mxGeometry x="647" y="670" width="120" height="80" as="geometry" />
        </mxCell>
        <mxCell id="BwOZN-iWx5cRg0U3uS1_-52" value="" style="endArrow=block;dashed=1;endFill=0;endSize=12;html=1;rounded=0;exitX=0;exitY=0.5;exitDx=0;exitDy=0;labelBackgroundColor=none;strokeColor=#E07A5F;fontColor=default;entryX=1;entryY=0.5;entryDx=0;entryDy=0;" edge="1" parent="1" source="BwOZN-iWx5cRg0U3uS1_-51">
          <mxGeometry width="160" relative="1" as="geometry">
            <mxPoint x="529" y="699" as="sourcePoint" />
            <mxPoint x="560" y="710" as="targetPoint" />
          </mxGeometry>
        </mxCell>
        <mxCell id="BwOZN-iWx5cRg0U3uS1_-53" value="Eliminar Rutina" style="ellipse;whiteSpace=wrap;html=1;labelBackgroundColor=none;fillColor=#F2CC8F;strokeColor=#E07A5F;fontColor=#393C56;" vertex="1" parent="1">
          <mxGeometry x="857.0000000000001" y="670" width="120" height="80" as="geometry" />
        </mxCell>
        <mxCell id="BwOZN-iWx5cRg0U3uS1_-54" value="Extends" style="text;html=1;strokeColor=none;fillColor=none;align=center;verticalAlign=middle;whiteSpace=wrap;rounded=0;rotation=0;labelBackgroundColor=none;fontColor=#393C56;" vertex="1" parent="1">
          <mxGeometry x="777.0000000000001" y="679" width="60" height="30" as="geometry" />
        </mxCell>
        <mxCell id="BwOZN-iWx5cRg0U3uS1_-55" value="Extends" style="text;html=1;strokeColor=none;fillColor=none;align=center;verticalAlign=middle;whiteSpace=wrap;rounded=0;rotation=0;labelBackgroundColor=none;fontColor=#393C56;" vertex="1" parent="1">
          <mxGeometry x="583.4300000000001" y="679" width="60" height="30" as="geometry" />
        </mxCell>
        <mxCell id="BwOZN-iWx5cRg0U3uS1_-56" value="" style="endArrow=block;dashed=1;endFill=0;endSize=12;html=1;rounded=0;exitX=0;exitY=0.5;exitDx=0;exitDy=0;labelBackgroundColor=none;strokeColor=#E07A5F;fontColor=default;entryX=1;entryY=0.5;entryDx=0;entryDy=0;" edge="1" parent="1">
          <mxGeometry width="160" relative="1" as="geometry">
            <mxPoint x="853.5" y="710" as="sourcePoint" />
            <mxPoint x="766.5" y="710" as="targetPoint" />
          </mxGeometry>
        </mxCell>
        <mxCell id="BwOZN-iWx5cRg0U3uS1_-57" value="" style="endArrow=block;dashed=1;endFill=0;endSize=12;html=1;rounded=0;entryX=1;entryY=1;entryDx=0;entryDy=0;exitX=0;exitY=0.5;exitDx=0;exitDy=0;labelBackgroundColor=none;strokeColor=#E07A5F;fontColor=default;" edge="1" parent="1" source="BwOZN-iWx5cRg0U3uS1_-8" target="BwOZN-iWx5cRg0U3uS1_-18">
          <mxGeometry width="160" relative="1" as="geometry">
            <mxPoint x="420" y="841" as="sourcePoint" />
            <mxPoint x="322" y="838" as="targetPoint" />
          </mxGeometry>
        </mxCell>
        <mxCell id="BwOZN-iWx5cRg0U3uS1_-18" value="Extends" style="text;html=1;strokeColor=none;fillColor=none;align=center;verticalAlign=middle;whiteSpace=wrap;rounded=0;rotation=0;labelBackgroundColor=none;fontColor=#393C56;" vertex="1" parent="1">
          <mxGeometry x="350" y="816.91" width="60" height="30" as="geometry" />
        </mxCell>
        <mxCell id="VFmd9dJSUjvMdhXV-F65-1" value="Usuario" style="shape=umlActor;verticalLabelPosition=bottom;verticalAlign=top;html=1;outlineConnect=0;rounded=0;labelBackgroundColor=none;fillColor=#F2CC8F;strokeColor=#E07A5F;fontColor=#393C56;" vertex="1" parent="1">
          <mxGeometry x="1850" y="400" width="40" height="80" as="geometry" />
        </mxCell>
      </root>
    </mxGraphModel>
  </diagram>
</mxfile>
